<?xml version="1.0" encoding="UTF-8"?>
<svg width="309px" height="399px" viewBox="0 0 309 399" version="1.1" xmlns="http://www.w3.org/2000/svg" xmlns:xlink="http://www.w3.org/1999/xlink">
    <!-- Generator: Sketch 51.1 (57501) - http://www.bohemiancoding.com/sketch -->
    <title>Group</title>
    <desc>Created with Sketch.</desc>
    <defs>
        <rect id="path-1" x="0" y="0" width="293" height="383"></rect>
        <filter x="-3.9%" y="-3.0%" width="108.5%" height="106.5%" filterUnits="objectBoundingBox" id="filter-2">
            <feOffset dx="1" dy="1" in="SourceAlpha" result="shadowOffsetOuter1"></feOffset>
            <feGaussianBlur stdDeviation="4" in="shadowOffsetOuter1" result="shadowBlurOuter1"></feGaussianBlur>
            <feColorMatrix values="0 0 0 0 0   0 0 0 0 0   0 0 0 0 0  0 0 0 0.253793025 0" type="matrix" in="shadowBlurOuter1"></feColorMatrix>
        </filter>
    </defs>
    <g id="Page-1" stroke="none" stroke-width="1" fill="none" fill-rule="evenodd">
        <g id="Group" transform="translate(7.000000, 7.000000)">
            <g id="Rectangle-2-Copy">
                <use fill="black" fill-opacity="1" filter="url(#filter-2)" xlink:href="#path-1"></use>
                <use fill="#FFFFFF" fill-rule="evenodd" xlink:href="#path-1"></use>
            </g>
            <g id="link-solid-copy" transform="translate(23.000000, 264.000000)" fill="#828282" fill-rule="nonzero">
                <path d="M14.0341343,7.96602546 C16.6013888,10.5359384 16.5661544,14.6561608 14.049603,17.1866715 C14.0448765,17.1918277 14.0392905,17.1974137 14.0341343,17.2025699 L11.1466336,20.0900643 C8.59987515,22.6368171 4.45644054,22.6364734 1.91006883,20.0900643 C-0.636689609,17.5437411 -0.636689609,13.399843 1.91006883,10.8535198 L3.50446765,9.25912449 C3.92728026,8.83631282 4.65542887,9.1173279 4.677257,9.71485017 C4.70510076,10.4763409 4.84165548,11.241398 5.09362429,11.9802012 C5.17896025,12.2303648 5.11798758,12.507083 4.93107347,12.6939967 L4.3687413,13.2563276 C3.16449882,14.4605675 3.12672928,16.4213996 4.31911238,17.6374128 C5.52326893,18.8654143 7.50249597,18.872719 8.7158908,17.6593268 L11.6033915,14.7722622 C12.8147238,13.5609325 12.8096535,11.6030223 11.6033915,10.3967629 C11.4443641,10.2380366 11.2841766,10.1147166 11.1590516,10.0285644 C10.9795624,9.9053095 10.8688852,9.70447545 10.8605476,9.48690139 C10.8435319,9.0328515 11.004407,8.56496569 11.3631961,8.20617733 L12.2678604,7.30147207 C12.5050909,7.06424206 12.8772434,7.03510931 13.1523294,7.22709331 C13.4673628,7.44707119 13.7624351,7.69433489 14.0341343,7.96602546 Z M20.0899365,1.90993572 C17.5435648,-0.636473364 13.4001302,-0.636817113 10.8533718,1.90993572 L7.96587109,4.79743008 C7.96071483,4.80258632 7.9551289,4.80817225 7.95040233,4.81332849 C5.4338939,7.34383917 5.39861655,11.4640616 7.96587109,14.0339745 C8.23755428,14.3056528 8.53261242,14.5529024 8.84763302,14.7728637 C9.12271902,14.9648477 9.49491443,14.935672 9.73210199,14.698485 L10.6367663,13.7937797 C10.9955554,13.4349913 11.1564305,12.9671055 11.1394148,12.5130556 C11.1310772,12.2954816 11.0204,12.0946475 10.8409108,11.9713926 C10.7157858,11.8852405 10.5555983,11.7619204 10.3965709,11.6031941 C9.19030888,10.3969348 9.18523857,8.43902453 10.3965709,7.22769487 L13.2840716,4.3406302 C14.4974664,3.12723803 16.4766505,3.13454271 17.68085,4.36254422 C18.8732331,5.57855746 18.8355066,7.53938957 17.6312211,8.74362941 L17.0688889,9.30596034 C16.8819748,9.49287404 16.8210022,9.76959225 16.9063381,10.0197558 C17.1583069,10.7585591 17.2948616,11.5236162 17.3227054,12.2851069 C17.3445765,12.8826291 18.0726821,13.1636442 18.4954947,12.7408325 L20.0898936,11.1464372 C22.636695,8.60015703 22.636695,4.45625888 20.0899365,1.90993572 Z" id="Shape"></path>
            </g>
            <g id="location-arrow-solid-copy" transform="translate(23.000000, 228.000000)" fill="#828282" fill-rule="nonzero">
                <path d="M19.1002551,0.151187266 L1.23464644,8.39678826 C-0.826571626,9.35884666 -0.139498937,12.3820905 2.0592196,12.3820905 L9.61787855,12.3820905 L9.61787855,19.9406297 C9.61787855,22.1393134 12.6411703,22.8268049 13.6032439,20.7651898 L21.8489755,2.89986416 C22.5360482,1.25031428 20.7494014,-0.536304219 19.1002551,0.151187266 Z" id="Shape"></path>
            </g>
            <rect id="Rectangle-3-Copy" fill="#828282" x="0" y="0" width="293" height="109"></rect>
            <circle id="Oval" fill="#D8D8D8" cx="56.5" cy="54.5" r="39.5"></circle>
            <g id="building-solid-copy" transform="translate(23.000000, 189.000000)" fill="#828282" fill-rule="nonzero">
                <path d="M21.4107143,23.6018041 L20.4285714,23.6018041 L20.4285714,1.18009021 C20.4285714,0.528336219 19.9009152,0 19.25,0 L2.75,0 C2.09908482,0 1.57142857,0.528336219 1.57142857,1.18009021 L1.57142857,23.6018041 L0.589285714,23.6018041 C0.263852679,23.6018041 0,23.8659968 0,24.1918492 L0,25.1752577 L22,25.1752577 L22,24.1918492 C22,23.8659968 21.7361473,23.6018041 21.4107143,23.6018041 Z M6.28571429,3.73695232 C6.28571429,3.41109991 6.54956696,3.14690722 6.875,3.14690722 L8.83928571,3.14690722 C9.16471875,3.14690722 9.42857143,3.41109991 9.42857143,3.73695232 L9.42857143,5.70376933 C9.42857143,6.02962174 9.16471875,6.29381443 8.83928571,6.29381443 L6.875,6.29381443 C6.54956696,6.29381443 6.28571429,6.02962174 6.28571429,5.70376933 L6.28571429,3.73695232 Z M6.28571429,8.45731314 C6.28571429,8.13146074 6.54956696,7.86726804 6.875,7.86726804 L8.83928571,7.86726804 C9.16471875,7.86726804 9.42857143,8.13146074 9.42857143,8.45731314 L9.42857143,10.4241302 C9.42857143,10.7499826 9.16471875,11.0141753 8.83928571,11.0141753 L6.875,11.0141753 C6.54956696,11.0141753 6.28571429,10.7499826 6.28571429,10.4241302 L6.28571429,8.45731314 Z M8.83928571,15.7345361 L6.875,15.7345361 C6.54956696,15.7345361 6.28571429,15.4703434 6.28571429,15.144491 L6.28571429,13.177674 C6.28571429,12.8518216 6.54956696,12.5876289 6.875,12.5876289 L8.83928571,12.5876289 C9.16471875,12.5876289 9.42857143,12.8518216 9.42857143,13.177674 L9.42857143,15.144491 C9.42857143,15.4703434 9.16471875,15.7345361 8.83928571,15.7345361 Z M12.5714286,23.6018041 L9.42857143,23.6018041 L9.42857143,19.4714884 C9.42857143,19.145636 9.69242411,18.8814433 10.0178571,18.8814433 L11.9821429,18.8814433 C12.3075759,18.8814433 12.5714286,19.145636 12.5714286,19.4714884 L12.5714286,23.6018041 Z M15.7142857,15.144491 C15.7142857,15.4703434 15.450433,15.7345361 15.125,15.7345361 L13.1607143,15.7345361 C12.8352812,15.7345361 12.5714286,15.4703434 12.5714286,15.144491 L12.5714286,13.177674 C12.5714286,12.8518216 12.8352812,12.5876289 13.1607143,12.5876289 L15.125,12.5876289 C15.450433,12.5876289 15.7142857,12.8518216 15.7142857,13.177674 L15.7142857,15.144491 Z M15.7142857,10.4241302 C15.7142857,10.7499826 15.450433,11.0141753 15.125,11.0141753 L13.1607143,11.0141753 C12.8352812,11.0141753 12.5714286,10.7499826 12.5714286,10.4241302 L12.5714286,8.45731314 C12.5714286,8.13146074 12.8352812,7.86726804 13.1607143,7.86726804 L15.125,7.86726804 C15.450433,7.86726804 15.7142857,8.13146074 15.7142857,8.45731314 L15.7142857,10.4241302 Z M15.7142857,5.70376933 C15.7142857,6.02962174 15.450433,6.29381443 15.125,6.29381443 L13.1607143,6.29381443 C12.8352812,6.29381443 12.5714286,6.02962174 12.5714286,5.70376933 L12.5714286,3.73695232 C12.5714286,3.41109991 12.8352812,3.14690722 13.1607143,3.14690722 L15.125,3.14690722 C15.450433,3.14690722 15.7142857,3.41109991 15.7142857,3.73695232 L15.7142857,5.70376933 Z" id="Shape"></path>
            </g>
            <rect id="Rectangle-4" fill="#D8D8D8" x="115" y="38" width="160" height="12"></rect>
            <rect id="Rectangle-4-Copy-2" fill="#D8D8D8" x="16" y="130" width="256" height="12"></rect>
            <rect id="Rectangle-4-Copy-3" fill="#D8D8D8" x="16" y="146" width="256" height="12"></rect>
            <rect id="Rectangle-4-Copy-4" fill="#D8D8D8" x="16" y="162" width="129" height="12"></rect>
            <rect id="Rectangle-4-Copy-5" fill="#D8D8D8" x="57" y="195" width="149" height="12"></rect>
            <rect id="Rectangle-4-Copy-6" fill="#D8D8D8" x="57" y="269" width="149" height="12"></rect>
            <rect id="Rectangle-4-Copy-7" fill="#D8D8D8" x="57" y="233" width="149" height="12"></rect>
            <rect id="Rectangle-4-Copy-8" fill="#D8D8D8" x="23" y="305" width="90" height="12"></rect>
            <rect id="Rectangle-4-Copy" fill="#D8D8D8" x="185" y="66" width="90" height="12"></rect>
            <rect id="Rectangle-5" fill="#D8D8D8" x="23" y="336" width="30" height="30"></rect>
            <rect id="Rectangle-5-Copy" fill="#D8D8D8" x="242" y="336" width="30" height="30"></rect>
            <rect id="Rectangle-5-Copy-2" fill="#D8D8D8" x="198" y="336" width="30" height="30"></rect>
            <rect id="Rectangle-5-Copy-3" fill="#D8D8D8" x="154" y="336" width="30" height="30"></rect>
            <rect id="Rectangle-5-Copy-4" fill="#D8D8D8" x="111" y="336" width="30" height="30"></rect>
            <rect id="Rectangle-5-Copy-5" fill="#D8D8D8" x="67" y="336" width="30" height="30"></rect>
        </g>
    </g>
</svg>